<svg width="42" height="42" viewBox="0 0 42 42" fill="none" xmlns="http://www.w3.org/2000/svg">
<g clip-path="url(#clip0_53_9842)">
<path d="M21 0C9.40212 0 0 9.40212 0 21C0 30.8482 6.78048 39.1121 15.9272 41.3818V27.4176H11.597V21H15.9272V18.2347C15.9272 11.0872 19.1621 7.7742 26.1794 7.7742C27.51 7.7742 29.8057 8.03544 30.7448 8.29584V14.1128C30.2492 14.0608 29.3882 14.0347 28.3189 14.0347C24.8758 14.0347 23.5452 15.3392 23.5452 18.7303V21H30.4046L29.2261 27.4176H23.5452V41.8463C33.9436 40.5905 42.0008 31.7369 42.0008 21C42 9.40212 32.5979 0 21 0Z" fill="#5CD66D"/>
</g>
<defs>
<clipPath id="clip0_53_9842">
<rect width="42" height="42" fill="white"/>
</clipPath>
</defs>
</svg>
