<svg width="42" height="42" viewBox="0 0 42 42" fill="none" xmlns="http://www.w3.org/2000/svg">
<path d="M38.891 0H3.10078C1.38633 0 0 1.35352 0 3.02695V38.9648C0 40.6383 1.38633 42 3.10078 42H38.891C40.6055 42 42 40.6383 42 38.973V3.02695C42 1.35352 40.6055 0 38.891 0ZM12.4605 35.7902H6.22617V15.7418H12.4605V35.7902ZM9.34336 13.0102C7.3418 13.0102 5.72578 11.3941 5.72578 9.40078C5.72578 7.40742 7.3418 5.79141 9.34336 5.79141C11.3367 5.79141 12.9527 7.40742 12.9527 9.40078C12.9527 11.3859 11.3367 13.0102 9.34336 13.0102ZM35.7902 35.7902H29.5641V26.0449C29.5641 23.7234 29.523 20.7293 26.3238 20.7293C23.0836 20.7293 22.5914 23.2641 22.5914 25.8809V35.7902H16.3734V15.7418H22.3453V18.4816H22.4273C23.2559 16.9066 25.2902 15.2414 28.3172 15.2414C34.6254 15.2414 35.7902 19.3922 35.7902 24.7898V35.7902V35.7902Z" fill="#5CD66D"/>
</svg>
