<svg width="31" height="36" viewBox="0 0 31 36" fill="none" xmlns="http://www.w3.org/2000/svg">
<path d="M18.4315 12.0921V13.711C18.8289 16.0148 19.7899 17.705 21.3179 18.7947C23.3841 20.2514 25.4192 20.9855 27.4281 20.9855C28.5063 20.9855 29.6509 20.8273 30.8528 20.507V26.9376C29.9311 27.1023 29.0331 27.1834 28.1524 27.1834C26.1763 27.1834 24.2747 26.7074 22.4297 25.7685C20.719 24.8935 19.3852 23.4753 18.4315 21.5106V35.8162H12.4212V21.5106C11.4659 23.4753 10.133 24.8935 8.42229 25.7685C6.57889 26.7074 4.67486 27.1834 2.70037 27.1834C1.81882 27.1834 0.9217 27.1023 0 26.9376V20.507C1.20108 20.8273 2.34644 20.9855 3.42462 20.9855C5.43434 20.9855 7.46699 20.2514 9.53324 18.7947C11.0612 17.705 12.0247 16.0148 12.4212 13.711V12.0921C11.4659 14.0567 10.133 15.4733 8.42229 16.3483C6.57889 17.2872 4.67486 17.7648 2.70037 17.7648C1.81882 17.7648 0.9217 17.6821 0 17.5174V11.0868C1.20108 11.4088 2.34644 11.5653 3.42462 11.5653C5.43434 11.5653 7.46699 10.8312 9.53324 9.3745C11.0612 8.28484 12.0247 6.59465 12.4212 4.29081V0.408203H18.4315V4.29081C18.8289 6.59465 19.7899 8.28484 21.3179 9.3745C23.3841 10.8312 25.4192 11.5653 27.4281 11.5653C28.5063 11.5653 29.6509 11.4088 30.8528 11.0868V17.5174C29.9311 17.6821 29.0331 17.7648 28.1524 17.7648C26.1763 17.7648 24.2747 17.2872 22.4297 16.3483C20.719 15.4733 19.3852 14.0567 18.4315 12.0921Z" fill="#5CD66D"/>
</svg>