<svg width="146" height="43" viewBox="0 0 146 43" fill="none" xmlns="http://www.w3.org/2000/svg">
<path fill-rule="evenodd" clip-rule="evenodd" d="M15.0808 0H20.4389C28.7682 0 35.5205 6.75157 35.5205 15.0815V27.0832C35.5205 35.4116 28.7682 42.1632 20.4389 42.1632H15.0808C6.75229 42.1632 0 35.4116 0 27.0832V15.0815C0 6.75157 6.75229 0 15.0808 0ZM31.4178 20.5557C31.4178 20.5557 31.4178 20.5557 31.4179 20.5557V14.8624C31.4178 14.8625 31.4178 14.8625 31.4178 14.8625C31.3513 14.8803 31.285 14.8975 31.2189 14.9142C30.294 15.1475 29.4083 15.2691 28.5671 15.2844C28.5065 15.2855 28.4461 15.2861 28.3859 15.2861C26.6073 15.2861 24.8056 14.6361 22.9762 13.3465C21.6234 12.3817 20.7726 10.8853 20.4208 8.84566V5.40822H15.0996V5.40823H15.0996V8.84567C14.7485 10.8854 13.8955 12.3818 12.5427 13.3465C11.3994 14.1525 10.2677 14.7086 9.14532 15.0124C8.75326 15.1185 8.36234 15.1938 7.97246 15.2382C7.69264 15.2701 7.41335 15.2861 7.13456 15.2861C6.17999 15.2861 5.16595 15.1475 4.10259 14.8624V14.8625C4.10256 14.8625 4.10254 14.8625 4.10251 14.8625V20.5557C4.91853 20.7015 5.71279 20.7748 6.49327 20.7748C6.60255 20.7748 6.71159 20.7731 6.82038 20.7698C8.15048 20.7295 9.44446 20.4426 10.7062 19.9158C10.9922 19.7964 11.2765 19.6646 11.5592 19.5207C13.0737 18.746 14.2538 17.4919 15.0996 15.7526V17.1858C14.7485 19.2254 13.8955 20.7218 12.5427 21.6866C11.6281 22.3314 10.7208 22.8163 9.8199 23.14C8.94862 23.453 8.08318 23.6153 7.22254 23.6256C7.1932 23.626 7.16388 23.6261 7.13456 23.6261C6.17999 23.6261 5.16595 23.4861 4.10259 23.2025V23.2026C4.10256 23.2026 4.10254 23.2026 4.10251 23.2025V28.8958C4.91853 29.0416 5.71279 29.1134 6.49327 29.1134C6.60255 29.1134 6.71159 29.1118 6.82038 29.1085C8.12498 29.069 9.39482 28.7932 10.6336 28.2858C10.9441 28.1586 11.2526 28.0169 11.5592 27.8607C13.0737 27.0861 14.2538 25.8306 15.0996 24.0912V36.7565H20.4207L20.4208 36.7564V24.0913C21.2651 25.8306 22.446 27.0861 23.9605 27.8608C25.5939 28.692 27.2775 29.1134 29.027 29.1134C29.1245 29.1134 29.2223 29.1123 29.3202 29.1101C30.0059 29.0943 30.7038 29.0234 31.4178 28.8958C31.4178 28.8958 31.4178 28.8958 31.4179 28.8958V23.2025C31.4178 23.2025 31.4178 23.2025 31.4178 23.2025C31.3513 23.2203 31.285 23.2374 31.2189 23.254C30.294 23.4863 29.4083 23.609 28.5671 23.6245C28.5065 23.6256 28.4461 23.6261 28.3859 23.6261C26.6073 23.6261 24.8056 22.9762 22.9762 21.6866C21.6234 20.7218 20.7726 19.2254 20.4208 17.1857V15.7526C21.2651 17.4919 22.446 18.746 23.9605 19.5207C25.5939 20.3519 27.2775 20.7748 29.027 20.7748C29.1245 20.7748 29.2223 20.7736 29.3202 20.7714C30.0059 20.7553 30.7038 20.6833 31.4178 20.5557Z" fill="#5CD66D"/>
<path d="M86.935 26.1362C88.8941 25.3014 90.471 23.9176 91.6692 21.9848C92.865 20.0483 93.4641 17.9488 93.4641 15.6801C93.4641 12.4137 92.3373 9.57716 90.0836 7.17685C87.8275 4.77403 85.0975 3.57324 81.8963 3.57324H40.5206V10.5786H50.4553V38.5915H57.4519V10.5786H67.0168V38.5915H74.0122V27.085H79.5185L86 38.5915H93.9292L86.9338 26.1362H86.935ZM85.3018 19.0806C84.3693 20.0809 83.2324 20.5797 81.8963 20.5797H74.0122V10.3255H81.8963C83.2337 10.3255 84.3693 10.8193 85.3018 11.802C86.2331 12.7859 86.7006 13.9942 86.7006 15.4282C86.7006 16.8621 86.2331 18.0804 85.3018 19.0806Z" fill="#5CD66D"/>
<path d="M119.658 10.5258V3.57178H96.0095V38.59H119.658V31.636H103.007V24.484H117.793V17.6791H103.007V10.5258H119.658Z" fill="#5CD66D"/>
<path d="M145.3 10.5258V3.57178H121.652V38.59H145.3V31.636H128.65V24.484H143.435V17.6791H128.65V10.5258H145.3Z" fill="#5CD66D"/>
</svg>
