<svg width="18" height="19" viewBox="0 0 18 19" fill="none" xmlns="http://www.w3.org/2000/svg">
<path d="M16.5 4.84967C15.9363 5.09424 15.3401 5.25592 14.73 5.32967C15.3736 4.94516 15.856 4.34026 16.0875 3.62717C15.4827 3.98722 14.8206 4.24089 14.13 4.37717C13.6684 3.8766 13.0537 3.54339 12.3824 3.42981C11.711 3.31622 11.0209 3.42869 10.4203 3.74956C9.81978 4.07043 9.3427 4.58157 9.06393 5.2028C8.78516 5.82403 8.72047 6.52021 8.88 7.18217C7.65707 7.12031 6.46083 6.80188 5.36899 6.24757C4.27715 5.69325 3.31413 4.91544 2.5425 3.96467C2.27185 4.4373 2.12964 4.97254 2.13 5.51717C2.12904 6.02296 2.25316 6.52113 2.49132 6.96734C2.72947 7.41355 3.07426 7.79395 3.495 8.07467C3.00598 8.06136 2.52741 7.93014 2.1 7.69217V7.72967C2.10367 8.43834 2.352 9.12399 2.80299 9.67064C3.25398 10.2173 3.87994 10.5914 4.575 10.7297C4.30744 10.8111 4.02966 10.854 3.75 10.8572C3.55642 10.8549 3.36332 10.8374 3.1725 10.8047C3.37043 11.4143 3.75347 11.947 4.26831 12.3288C4.78315 12.7105 5.40418 12.9223 6.045 12.9347C4.9629 13.7861 3.62691 14.2508 2.25 14.2547C1.9993 14.2555 1.7488 14.2405 1.5 14.2097C2.90582 15.1174 4.54411 15.5992 6.2175 15.5972C7.37227 15.6092 8.51785 15.3909 9.58734 14.9552C10.6568 14.5195 11.6288 13.8751 12.4464 13.0595C13.264 12.244 13.911 11.2737 14.3494 10.2053C14.7879 9.13698 15.009 7.99196 15 6.83717C15 6.70967 15 6.57467 15 6.43967C15.5885 6.00078 16.0961 5.46274 16.5 4.84967Z" fill="#5CD66D"/>
</svg>
