<svg width="20" height="20" viewBox="0 0 41 41" fill="none" xmlns="http://www.w3.org/2000/svg">
<g id="Icon" clip-path="url(#clip0_40_2976)">
<path id="Vector" d="M40.4027 20.5001C40.4027 9.45436 31.4484 0.500061 20.4027 0.500061C9.35701 0.500061 0.40271 9.45436 0.40271 20.5001C0.40271 30.4825 7.71638 38.7567 17.2777 40.2571V26.2813H12.1996V20.5001H17.2777V16.0938C17.2777 11.0813 20.2636 8.31256 24.832 8.31256C27.0195 8.31256 29.309 8.70319 29.309 8.70319V13.6251H26.7871C24.3027 13.6251 23.5277 15.1669 23.5277 16.7501V20.5001H29.0746L28.1879 26.2813H23.5277V40.2571C33.089 38.7567 40.4027 30.4825 40.4027 20.5001Z" fill="#5CD66D"/>
</g>
<defs>
<clipPath id="clip0_40_2976">
<rect width="40" height="40" fill="white" transform="translate(0.40271 0.500061)"/>
</clipPath>
</defs>
</svg>
