<svg width="145" height="42" viewBox="0 0 145 42" fill="none" xmlns="http://www.w3.org/2000/svg">
<path fill-rule="evenodd" clip-rule="evenodd" d="M15.0233 -0.000976562H20.3611C28.6585 -0.000976562 35.3851 6.72487 35.3851 15.0231V26.979C35.3851 35.2757 28.6585 42.0016 20.3611 42.0016H15.0233C6.72657 42.0016 0 35.2757 0 26.979V15.0231C0 6.72487 6.72657 -0.000976562 15.0233 -0.000976562ZM21.9717 12.4744C22.2461 12.781 22.5518 13.0544 22.8887 13.2946C24.7111 14.5794 26.506 15.2268 28.2777 15.2268C29.2287 15.2268 30.2381 15.0888 31.2982 14.8048V14.8052C31.2982 14.8051 31.2983 14.8051 31.2984 14.8051V20.4767C30.4855 20.6219 29.6935 20.6949 28.9167 20.6949C27.1739 20.6949 25.4967 20.2736 23.8695 19.4456C23.0369 19.0197 22.3056 18.4485 21.676 17.7308C21.1646 17.1479 20.7202 16.4685 20.3432 15.6919V17.1195C20.5848 18.5202 21.0626 19.6638 21.7777 20.5539C21.8405 20.6321 21.9052 20.7084 21.9717 20.7827C22.2461 21.0893 22.5518 21.3627 22.8887 21.6029C24.7111 22.8877 26.506 23.5351 28.2777 23.5351C29.2287 23.5351 30.2381 23.3957 31.2982 23.1132V23.1135C31.2982 23.1135 31.2983 23.1134 31.2984 23.1134V28.785C30.4855 28.9302 29.6935 29.0018 28.9167 29.0018C27.1739 29.0018 25.4967 28.582 23.8695 27.7539C23.0369 27.328 22.3056 26.7563 21.676 26.0383C21.1646 25.4551 20.7202 24.7753 20.3432 23.9988V36.6157H15.0423V36.6154H15.0421V23.9991C14.1996 25.7316 13.024 26.9822 11.5154 27.7539C9.88956 28.582 8.21027 29.0018 6.46883 29.0018C5.69133 29.0018 4.90009 28.9302 4.08718 28.785V28.7848C4.08711 28.7848 4.08703 28.7848 4.08696 28.7847V23.1132C5.14627 23.3957 6.15645 23.5351 7.10737 23.5351C8.87988 23.5351 10.6726 22.8877 12.495 21.6029C13.8426 20.6419 14.6924 19.1512 15.0421 17.1193V15.6922C14.1996 17.4247 13.024 18.6739 11.5154 19.4456C9.88956 20.2736 8.21027 20.6949 6.46883 20.6949C5.69133 20.6949 4.90009 20.6219 4.08718 20.4767V20.4765C4.08711 20.4765 4.08703 20.4764 4.08696 20.4764V14.8048C5.14627 15.0888 6.15645 15.2268 7.10737 15.2268C8.87988 15.2268 10.6726 14.5794 12.495 13.2946C13.8426 12.3336 14.6924 10.8429 15.0421 8.81098V5.38664H20.343V5.38689H20.3432V8.81124C20.5848 10.2119 21.0626 11.3554 21.7776 12.2455C21.8405 12.3238 21.9052 12.4 21.9717 12.4744Z" fill="#BFBFBF"/>
<path d="M86.6038 26.0356C88.5554 25.204 90.1262 23.8255 91.3199 21.9C92.5112 19.9709 93.108 17.8794 93.108 15.6193C93.108 12.3653 91.9855 9.53964 89.7404 7.14847C87.4928 4.7548 84.7733 3.55859 81.5842 3.55859H40.3662V10.5373H50.263V38.4434H57.233V10.5373H66.7615V38.4434H73.7302V26.9808H79.2155L85.6723 38.4434H93.5713L86.6025 26.0356H86.6038ZM84.9768 19.0069C84.0478 20.0033 82.9153 20.5003 81.5842 20.5003H73.7302V10.2851H81.5842C82.9165 10.2851 84.0478 10.777 84.9768 11.756C85.9045 12.7362 86.3703 13.9399 86.3703 15.3683C86.3703 16.7968 85.9045 18.0105 84.9768 19.0069Z" fill="#BFBFBF"/>
<path d="M119.202 10.4851V3.55762H95.644V38.4424H119.202V31.5149H102.615V24.3901H117.344V17.6112H102.615V10.4851H119.202Z" fill="#BFBFBF"/>
<path d="M144.747 10.4851V3.55762H121.189V38.4424H144.747V31.5149H128.16V24.3901H142.889V17.6112H128.16V10.4851H144.747Z" fill="#BFBFBF"/>
</svg>
