<svg width="45" height="45" viewBox="0 0 41 41" fill="none" xmlns="http://www.w3.org/2000/svg">
<path id="Vector" d="M22.4591 0.502522C23.9185 0.496921 25.378 0.511589 26.837 0.54652L27.225 0.56052C27.6729 0.576519 28.1149 0.596519 28.6489 0.620518C30.7768 0.720514 32.2288 1.0565 33.5027 1.55049C34.8227 2.05847 35.9347 2.74645 37.0466 3.85841C38.0633 4.85759 38.8502 6.06623 39.3525 7.40029C39.8465 8.67424 40.1825 10.1282 40.2825 12.2561C40.3065 12.7881 40.3265 13.2321 40.3425 13.6801L40.3545 14.0681C40.39 15.5264 40.4054 16.9852 40.4005 18.4439L40.4025 19.9359V22.5558C40.4074 24.0152 40.3921 25.4746 40.3565 26.9336L40.3445 27.3216C40.3285 27.7696 40.3085 28.2116 40.2845 28.7456C40.1845 30.8735 39.8445 32.3254 39.3525 33.5994C38.8519 34.9349 38.0648 36.1445 37.0466 37.1433C36.0466 38.1599 34.8373 38.9467 33.5027 39.4492C32.2288 39.9432 30.7768 40.2792 28.6489 40.3792C28.1149 40.4032 27.6729 40.4232 27.225 40.4392L26.837 40.4512C25.378 40.4867 23.9185 40.502 22.4591 40.4972L20.9672 40.4992H18.3493C16.8898 40.5041 15.4304 40.4888 13.9714 40.4532L13.5834 40.4412C13.1087 40.424 12.634 40.404 12.1595 40.3812C10.0315 40.2812 8.57959 39.9412 7.30363 39.4492C5.96904 38.9479 4.76019 38.1609 3.76175 37.1433C2.74387 36.1439 1.95626 34.9345 1.45383 33.5994C0.959845 32.3254 0.623856 30.8735 0.52386 28.7456C0.501586 28.271 0.481587 27.7964 0.463862 27.3216L0.453862 26.9336C0.416991 25.4746 0.400323 24.0152 0.403864 22.5558V18.4439C0.398282 16.9852 0.41295 15.5264 0.447863 14.0681L0.461862 13.6801C0.477861 13.2321 0.497861 12.7881 0.52186 12.2561C0.621857 10.1262 0.957845 8.67624 1.45183 7.40029C1.95456 6.06557 2.74371 4.85726 3.76375 3.86041C4.7615 2.84195 5.9696 2.05361 7.30363 1.55049C8.57959 1.0565 10.0295 0.720514 12.1595 0.620518L13.5834 0.56052L13.9714 0.55052C15.4297 0.513667 16.8885 0.496999 18.3473 0.500522L22.4591 0.502522ZM20.4032 10.5022C19.0782 10.4834 17.7628 10.7282 16.5333 11.2223C15.3038 11.7164 14.1847 12.4499 13.2411 13.3802C12.2975 14.3105 11.5483 15.4191 11.0369 16.6415C10.5255 17.8639 10.2621 19.1758 10.2621 20.5008C10.2621 21.8259 10.5255 23.1378 11.0369 24.3602C11.5483 25.5826 12.2975 26.6912 13.2411 27.6215C14.1847 28.5518 15.3038 29.2853 16.5333 29.7794C17.7628 30.2735 19.0782 30.5182 20.4032 30.4995C23.0553 30.4995 25.5987 29.446 27.474 27.5707C29.3493 25.6954 30.4028 23.1519 30.4028 20.4998C30.4028 17.8478 29.3493 15.3043 27.474 13.429C25.5987 11.5537 23.0553 10.5022 20.4032 10.5022ZM20.4032 14.502C21.2002 14.4874 21.9921 14.6316 22.7327 14.9264C23.4733 15.2213 24.1477 15.6607 24.7166 16.2191C25.2855 16.7775 25.7374 17.4436 26.0459 18.1786C26.3544 18.9136 26.5134 19.7027 26.5135 20.4998C26.5136 21.2969 26.3549 22.0861 26.0467 22.8212C25.7384 23.5563 25.2867 24.2226 24.718 24.7812C24.1493 25.3397 23.4751 25.7794 22.7346 26.0745C21.994 26.3695 21.2022 26.5141 20.4052 26.4996C18.8139 26.4996 17.2879 25.8675 16.1627 24.7423C15.0375 23.6172 14.4054 22.0911 14.4054 20.4998C14.4054 18.9086 15.0375 17.3825 16.1627 16.2573C17.2879 15.1322 18.8139 14.5 20.4052 14.5L20.4032 14.502ZM30.9028 7.50228C30.2576 7.52811 29.6475 7.80257 29.2001 8.2682C28.7527 8.73383 28.5029 9.35449 28.5029 10.0002C28.5029 10.6459 28.7527 11.2666 29.2001 11.7322C29.6475 12.1978 30.2576 12.4723 30.9028 12.4981C31.5658 12.4981 32.2017 12.2347 32.6705 11.7659C33.1394 11.2971 33.4027 10.6612 33.4027 9.9982C33.4027 9.33518 33.1394 8.69932 32.6705 8.23049C32.2017 7.76167 31.5658 7.49828 30.9028 7.49828V7.50228Z" fill="#5CD66D"/>
</svg>
