<svg width="41" height="41" viewBox="0 0 41 41" fill="none" xmlns="http://www.w3.org/2000/svg">
<g id="Icon" clip-path="url(#clip0_40_2981)">
<path id="Vector" d="M37.4425 0.500061H3.35657C1.72375 0.500061 0.403442 1.78912 0.403442 3.38287V37.6094C0.403442 39.2032 1.72375 40.5001 3.35657 40.5001H37.4425C39.0753 40.5001 40.4034 39.2032 40.4034 37.6172V3.38287C40.4034 1.78912 39.0753 0.500061 37.4425 0.500061ZM12.2706 34.586H6.33313V15.4922H12.2706V34.586ZM9.30188 12.8907C7.39563 12.8907 5.85657 11.3516 5.85657 9.45319C5.85657 7.55475 7.39563 6.01569 9.30188 6.01569C11.2003 6.01569 12.7394 7.55475 12.7394 9.45319C12.7394 11.3438 11.2003 12.8907 9.30188 12.8907ZM34.4894 34.586H28.5597V25.3047C28.5597 23.0938 28.5206 20.2422 25.4738 20.2422C22.3878 20.2422 21.9191 22.6563 21.9191 25.1485V34.586H15.9972V15.4922H21.6847V18.1016H21.7628C22.5519 16.6016 24.4894 15.0157 27.3722 15.0157C33.38 15.0157 34.4894 18.9688 34.4894 24.1094V34.586Z" fill="#53992B"/>
</g>
<defs>
<clipPath id="clip0_40_2981">
<rect width="40" height="40" fill="white" transform="translate(0.403442 0.500061)"/>
</clipPath>
</defs>
</svg>
