<svg width="146" height="44" viewBox="0 0 146 44" fill="none" xmlns="http://www.w3.org/2000/svg">
<path fill-rule="evenodd" clip-rule="evenodd" d="M15.0808 0.918457H20.4389C28.7682 0.918457 35.5205 7.67003 35.5205 16V28.0016C35.5205 36.3301 28.7682 43.0817 20.4389 43.0817H15.0808C6.75229 43.0817 0 36.3301 0 28.0016V16C0 7.67003 6.75229 0.918457 15.0808 0.918457ZM31.4178 21.4742C31.4178 21.4742 31.4178 21.4742 31.4179 21.4742V15.7809C31.4178 15.7809 31.4178 15.7809 31.4178 15.7809C31.3513 15.7987 31.285 15.816 31.2189 15.8326C30.294 16.0659 29.4083 16.1876 28.5671 16.2029C28.5065 16.204 28.4461 16.2045 28.3859 16.2045C26.6073 16.2045 24.8056 15.5546 22.9762 14.2649C21.6234 13.3002 20.7726 11.8038 20.4208 9.76412V6.32668H15.0996V6.32669H15.0996V9.76413C14.7485 11.8038 13.8955 13.3002 12.5427 14.2649C11.3994 15.071 10.2677 15.6271 9.14532 15.9309C8.75326 16.037 8.36234 16.1123 7.97246 16.1567C7.69264 16.1886 7.41335 16.2045 7.13456 16.2045C6.17999 16.2045 5.16595 16.066 4.10259 15.7809V15.7809C4.10256 15.7809 4.10254 15.7809 4.10251 15.7809V21.4742C4.91853 21.62 5.71279 21.6933 6.49327 21.6933C6.60255 21.6933 6.71159 21.6916 6.82038 21.6883C8.15048 21.6479 9.44446 21.3611 10.7062 20.8342C10.9922 20.7148 11.2765 20.5831 11.5592 20.4391C13.0737 19.6645 14.2538 18.4104 15.0996 16.6711V18.1042C14.7485 20.1439 13.8955 21.6403 12.5427 22.605C11.6281 23.2498 10.7208 23.7347 9.8199 24.0584C8.94862 24.3714 8.08318 24.5337 7.22254 24.5441C7.1932 24.5444 7.16388 24.5446 7.13456 24.5446C6.17999 24.5446 5.16595 24.4046 4.10259 24.121V24.121C4.10256 24.121 4.10254 24.121 4.10251 24.121V29.8143C4.91853 29.9601 5.71279 30.0319 6.49327 30.0319C6.60255 30.0319 6.71159 30.0302 6.82038 30.0269C8.12498 29.9875 9.39482 29.7116 10.6336 29.2042C10.9441 29.0771 11.2526 28.9354 11.5592 28.7792C13.0737 28.0045 14.2538 26.749 15.0996 25.0097V37.6749H20.4207L20.4208 37.6749V25.0097C21.2651 26.749 22.446 28.0046 23.9605 28.7792C25.5939 29.6105 27.2775 30.0319 29.027 30.0319C29.1245 30.0319 29.2223 30.0308 29.3202 30.0285C30.0059 30.0128 30.7038 29.9419 31.4178 29.8143C31.4178 29.8143 31.4178 29.8143 31.4179 29.8143V24.121C31.4178 24.121 31.4178 24.121 31.4178 24.121C31.3513 24.1387 31.285 24.1559 31.2189 24.1725C30.294 24.4048 29.4083 24.5275 28.5671 24.5429C28.5065 24.544 28.4461 24.5446 28.3859 24.5446C26.6073 24.5446 24.8056 23.8947 22.9762 22.605C21.6234 21.6403 20.7726 20.1439 20.4208 18.1042V16.6711C21.2651 18.4104 22.446 19.6645 23.9605 20.4391C25.5939 21.2704 27.2775 21.6933 29.027 21.6933C29.1245 21.6933 29.2223 21.6921 29.3202 21.6898C30.0059 21.6738 30.7038 21.6018 31.4178 21.4742Z" fill="#5CD66D"/>
<path d="M86.9349 27.0546C88.894 26.2199 90.4708 24.8361 91.6691 22.9033C92.8649 20.9667 93.464 18.8673 93.464 16.5985C93.464 13.3321 92.3372 10.4956 90.0835 8.0953C87.8274 5.69248 85.0974 4.4917 81.8961 4.4917H40.5205V11.4971H50.4552V39.51H57.4518V11.4971H67.0167V39.51H74.0121V28.0035H79.5184L85.9999 39.51H93.929L86.9337 27.0546H86.9349ZM85.3017 19.9991C84.3691 20.9993 83.2323 21.4982 81.8961 21.4982H74.0121V11.2439H81.8961C83.2335 11.2439 84.3691 11.7378 85.3017 12.7204C86.233 13.7044 86.7005 14.9127 86.7005 16.3466C86.7005 17.7805 86.233 18.9989 85.3017 19.9991Z" fill="#5CD66D"/>
<path d="M119.658 11.4442V4.49023H96.0093V39.5085H119.658V32.5545H103.007V25.4024H117.793V18.5976H103.007V11.4442H119.658Z" fill="#5CD66D"/>
<path d="M145.3 11.4442V4.49023H121.652V39.5085H145.3V32.5545H128.65V25.4024H143.435V18.5976H128.65V11.4442H145.3Z" fill="#5CD66D"/>
</svg>
